Coordinates
version=1
nRows=8
nColumns=40
inDegrees=yes

Units are S.I. units (second, meters, Newtons, ...)
Angles are in degrees.

endheader
time	pelvis_tilt	pelvis_list	pelvis_rotation	pelvis_tx	pelvis_ty	pelvis_tz	hip_flexion_r	hip_adduction_r	hip_rotation_r	knee_angle_r	knee_angle_r_beta	ankle_angle_r	subtalar_angle_r	mtp_angle_r	hip_flexion_l	hip_adduction_l	hip_rotation_l	knee_angle_l	knee_angle_l_beta	ankle_angle_l	subtalar_angle_l	mtp_angle_l	lumbar_extension	lumbar_bending	lumbar_rotation	arm_flex_r	arm_add_r	arm_rot_r	elbow_flex_r	pro_sup_r	wrist_flex_r	wrist_dev_r	arm_flex_l	arm_add_l	arm_rot_l	elbow_flex_l	pro_sup_l	wrist_flex_l	wrist_dev_l
     21.37928571	     -3.35167295	     -3.20194526	     -0.76486632	      0.85321194	      0.93516092	      0.44209865	     30.99962562	     -5.58999423	     -6.71928620	     56.82083913	     56.82083913	      1.67973381	    -14.59746065	     -0.34283511	      6.85725235	     -2.16885447	     -5.18385219	     17.11643063	     17.11643063	     15.84357880	     -7.96377253	      2.33099049	     -8.09275933	      5.87198100	      3.15410855	     -6.66938512	    -10.44616160	     -9.61885414	     21.50383182	     46.62165681	      0.00000000	      0.00000000	     19.31437715	    -12.22589086	     -6.04908546	     63.43696092	     46.68364485	      0.00000000	      0.00000000
     21.39107143	     -3.42966937	     -3.31758330	     -1.01175481	      0.85174791	      0.93518088	      0.44307805	     31.48814271	     -5.22848419	     -7.08938951	     53.92354978	     53.92354978	      1.91866114	    -13.99048210	     -0.56815997	      6.11653357	     -2.32656989	     -5.47141701	     16.37041226	     16.37041226	     15.86006202	     -7.69390659	      1.96845203	     -8.21518168	      5.98350581	      3.03887233	     -7.98795528	    -10.49244407	     -9.58943050	     21.55166046	     46.61948584	      0.00000000	      0.00000000	     19.69134323	    -12.42003600	     -6.94346830	     65.71394974	     46.80454969	      0.00000000	      0.00000000
     21.40285714	     -3.51245348	     -3.43602383	     -1.25566823	      0.85023411	      0.93507253	      0.44411732	     31.82676768	     -4.84047773	     -7.41212994	     50.74881601	     50.74881601	      2.07050760	    -13.17340909	     -0.86363817	      5.40669885	     -2.48032157	     -5.70321948	     15.67189446	     15.67189446	     15.91194674	     -7.48267036	      1.61495759	     -8.33292891	      6.12157199	      2.95359906	     -9.21813428	    -10.57510654	     -9.60690678	     21.62661171	     46.62070382	      0.00000000	      0.00000000	     20.12300991	    -12.60376657	     -7.71439114	     67.62761273	     46.91099113	      0.00000000	      0.00000000
     21.41464286	     -3.59576495	     -3.52168623	     -1.50228823	      0.84881270	      0.93474614	      0.44523702	     32.03138596	     -4.46108101	     -7.66869719	     47.39237057	     47.39237057	      2.22481143	    -12.14746640	     -1.05535430	      4.72793783	     -2.59659427	     -5.93912782	     15.05259971	     15.05259971	     16.04509861	     -7.30556228	      1.30740745	     -8.44044144	      6.19650834	      2.95470356	    -10.36396907	    -10.66803288	     -9.69018459	     21.67438245	     46.62553898	      0.00000000	      0.00000000	     20.65511862	    -12.81258827	     -8.31128708	     69.23085190	     46.99610851	      0.00000000	      0.00000000
     21.42642857	     -3.67022698	     -3.61475107	     -1.74346717	      0.84747834	      0.93423980	      0.44636645	     32.05092285	     -4.04407583	     -7.84783215	     43.84901736	     43.84901736	      2.32232775	    -10.95020974	     -1.46421900	      4.05683523	     -2.72145299	     -6.17532985	     14.47253635	     14.47253635	     16.11354686	     -7.15982872	      0.81677305	     -8.57373704	      6.33652465	      2.83120586	    -11.47565020	    -10.80729319	     -9.92021046	     22.04433009	     46.63340107	      0.00000000	      0.00000000	     20.93323335	    -13.00547316	     -9.05120869	     71.18506890	     47.10327379	      0.00000000	      0.00000000
     21.43821429	     -3.87119469	     -3.69747046	     -1.96936802	      0.84615278	      0.93337794	      0.44761732	     32.10178141	     -3.59740039	     -7.93586818	     40.28428666	     40.28428666	      2.50607094	     -9.72933136	     -1.15548988	      3.63918732	     -2.84530929	     -6.31766212	     14.12550906	     14.12550906	     16.36145363	     -7.13957264	      0.65699099	     -8.47632978	      6.46295688	      2.77277759	    -12.33684958	    -10.90767728	     -9.98911476	     21.88652909	     46.64067222	      0.00000000	      0.00000000	     21.56193055	    -13.31592856	     -9.30057060	     71.91945786	     47.13897335	      0.00000000	      0.00000000
     21.45000000	     -3.82940448	     -3.75937477	     -2.16759578	      0.84522753	      0.93272850	      0.44882460	     31.69080309	     -3.23085516	     -8.13883133	     36.67180451	     36.67180451	      2.72894149	     -8.20348632	     -0.86734496	      2.86770433	     -2.93334855	     -6.52057140	     13.65392036	     13.65392036	     16.60474575	     -6.97993308	      0.39593050	     -8.66131807	      6.56963119	      2.86510499	    -13.25440822	    -11.10761165	    -10.14963842	     21.87128338	     46.65063574	      0.00000000	      0.00000000	     22.01502300	    -13.36359564	     -9.60405847	     73.14298622	     47.18764773	      0.00000000	      0.00000000
     21.46178571	     -3.83576253	     -3.74736988	     -2.38317522	      0.84445511	      0.93174612	      0.45010831	     31.27642754	     -2.93160496	     -8.29869126	     33.26520071	     33.26520071	      2.92592541	     -6.72861631	     -0.45637637	      2.16453888	     -2.94204074	     -6.72410041	     13.24021161	     13.24021161	     16.85904436	     -6.84613745	      0.06344519	     -8.75393821	      6.58283073	      2.89849580	    -14.04312940	    -11.25773409	    -10.36663403	     21.98097996	     46.66103122	      0.00000000	      0.00000000	     22.34436960	    -13.49742629	     -9.94634790	     74.40494441	     47.24043743	      0.00000000	      0.00000000
